<mxfile host="app.diagrams.net" modified="2023-07-01T06:34:39.443Z" agent="Mozilla/5.0 (Windows NT 10.0; Win64; x64) AppleWebKit/537.36 (KHTML, like Gecko) Chrome/114.0.0.0 Safari/537.36" version="21.3.5" etag="5jOS0ZPsVR-0-VXN4mw2" type="github">
  <diagram name="Page-1" id="vKXZoAYpRzL5v4x8kX8Z">
    <mxGraphModel>
      <root>
        <mxCell id="0" />
        <mxCell id="1" parent="0" />
      </root>
    </mxGraphModel>
  </diagram>
</mxfile>
